<?xml version="1.0" standalone="no"?>
<!DOCTYPE svg PUBLIC "-//W3C//DTD SVG 20010904//EN"
 "http://www.w3.org/TR/2001/REC-SVG-20010904/DTD/svg10.dtd">
<svg version="1.0" xmlns="http://www.w3.org/2000/svg"
 width="1080.000000pt" height="1080.000000pt" viewBox="0 0 1080.000000 1080.000000"
 preserveAspectRatio="xMidYMid meet">
<metadata>
Created by potrace 1.14, written by Peter Selinger 2001-2017
</metadata>
<g transform="translate(0.000000,1080.000000) scale(0.100000,-0.100000)"
fill="#000000" stroke="none">
<path d="M5050 10703 c-19 -2 -78 -11 -130 -19 -365 -56 -355 -55 -740 -52
-264 1 -382 -2 -425 -11 -153 -32 -246 -79 -277 -141 -10 -19 -16 -35 -14 -37
1 -2 29 5 61 15 l58 19 25 -24 c23 -21 35 -27 53 -25 4 1 5 -9 2 -21 -5 -21
-5 -21 9 -3 13 17 15 15 14 -23 -1 -30 3 -41 14 -42 10 0 9 -3 -4 -8 -25 -10
-28 -49 -4 -57 10 -3 22 -2 28 1 5 3 10 2 10 -3 0 -5 -8 -12 -17 -16 -10 -3
-25 -9 -33 -12 -13 -5 -13 -4 0 5 9 7 10 11 3 11 -13 0 -26 -17 -30 -40 -4
-27 -26 -59 -36 -53 -6 4 -8 0 -4 -11 4 -10 1 -19 -9 -23 -8 -3 -14 -13 -13
-22 4 -22 -10 -61 -21 -61 -5 0 -7 -7 -4 -15 4 -8 -1 -17 -10 -21 -9 -3 -16
-12 -16 -19 0 -7 -5 -15 -10 -17 -6 -2 -12 -13 -12 -25 -1 -11 -7 -19 -13 -16
-7 2 -12 -2 -12 -9 0 -7 -4 -25 -8 -41 -6 -23 -5 -26 9 -21 14 5 16 1 12 -20
-2 -14 -8 -31 -12 -38 -13 -21 -11 -47 4 -53 8 -3 12 -12 8 -20 -3 -8 -1 -17
5 -21 6 -3 8 -12 5 -20 -3 -8 0 -14 7 -14 7 0 1 -9 -13 -20 -17 -14 -20 -20
-10 -20 9 0 16 -10 17 -22 1 -13 9 -27 17 -33 13 -8 10 -11 -12 -21 l-27 -13
23 -7 c17 -5 20 -9 11 -15 -8 -4 -20 -3 -28 4 -12 10 -14 9 -8 -6 4 -11 4 -24
0 -30 -5 -7 -8 -28 -9 -47 0 -19 -4 -43 -8 -52 -6 -13 -4 -18 7 -18 9 0 19 -5
23 -11 4 -8 -1 -9 -17 -4 l-24 7 20 -18 c26 -23 30 -71 16 -183 -12 -92 -15
-101 -33 -83 -19 19 -41 15 -34 -5 6 -17 5 -17 -7 -1 -12 15 -14 13 -26 -13
-7 -16 -19 -29 -27 -29 -8 0 -14 -8 -14 -17 0 -13 -3 -14 -12 -5 -7 7 -22 12
-35 12 -19 0 -23 -5 -23 -29 0 -17 -4 -33 -10 -36 -6 -4 -5 -14 4 -28 8 -12
13 -33 12 -47 -1 -14 2 -36 7 -50 4 -13 5 -21 1 -17 -4 4 -13 -2 -20 -12 -25
-35 -104 -30 -104 6 0 15 -9 16 -27 5 -7 -4 -11 -18 -8 -30 3 -20 -5 -27 -27
-23 -4 0 -3 -10 2 -23 5 -15 5 -27 -3 -35 -8 -8 -8 -11 0 -11 7 0 10 -30 9
-87 -1 -80 -3 -88 -21 -91 -11 -1 -36 -21 -55 -44 -19 -22 -43 -49 -52 -59
-10 -11 -17 -22 -15 -26 1 -4 -14 -7 -33 -7 -34 -1 -60 13 -60 32 0 5 -7 23
-15 38 -12 23 -15 25 -15 9 0 -11 5 -40 11 -65 6 -25 13 -56 15 -70 10 -53 57
-189 94 -267 21 -45 83 -151 137 -235 55 -84 125 -197 157 -250 31 -54 61
-100 67 -103 5 -4 9 6 9 22 1 47 33 120 74 169 80 95 317 171 625 199 51 5 80
4 97 -5 22 -12 22 -14 6 -27 -16 -14 -16 -14 1 -9 13 4 17 0 17 -19 0 -14 -5
-24 -12 -23 -6 2 -14 -6 -16 -17 -4 -17 -2 -18 12 -6 14 11 16 11 16 -3 0 -18
-21 -21 -37 -5 -7 7 -13 7 -17 0 -7 -11 28 -34 38 -24 3 3 6 1 6 -5 0 -7 -7
-12 -15 -12 -8 0 -15 -4 -15 -10 0 -5 5 -10 11 -10 5 0 8 -4 4 -10 -3 -5 -12
-7 -20 -3 -19 6 -19 4 0 -40 15 -37 10 -54 -11 -36 -9 8 -11 5 -7 -11 4 -15 9
-18 16 -11 6 6 18 11 26 11 12 0 12 -3 3 -12 -7 -7 -12 -20 -12 -29 0 -10 -9
-25 -21 -33 -13 -9 -18 -19 -13 -27 5 -9 2 -11 -9 -6 -9 3 -19 2 -22 -3 -13
-21 -25 -9 -19 17 6 21 4 25 -9 20 -9 -3 -18 0 -21 9 -3 8 -15 14 -26 14 -11
0 -20 5 -20 10 0 16 -37 12 -44 -5 -3 -8 -11 -12 -19 -9 -10 3 -13 -7 -12 -41
0 -26 -3 -49 -7 -51 -4 -3 -8 -16 -8 -28 0 -18 7 -25 33 -31 22 -5 26 -9 15
-12 -11 -3 -18 -14 -18 -29 0 -14 -4 -22 -10 -19 -6 3 -7 -1 -4 -9 3 -9 9 -16
13 -16 13 0 8 -29 -5 -34 -8 -3 -11 0 -7 10 3 8 -1 14 -10 14 -19 0 -31 -16
-18 -24 5 -3 7 -15 4 -27 -4 -15 0 -22 18 -26 22 -6 21 -7 -11 -19 -34 -12
-34 -13 -7 -13 15 -1 36 -5 47 -11 11 -6 29 -14 39 -20 14 -6 21 -6 24 3 3 7
6 4 6 -5 1 -20 16 -24 26 -8 4 7 11 7 18 2 14 -11 48 -12 42 -1 -8 12 6 39 21
39 20 0 17 28 -3 33 -15 4 -15 5 -2 6 9 0 24 -9 35 -21 13 -14 14 -19 4 -14
-8 4 -6 0 4 -8 17 -14 18 -16 3 -16 -9 0 -17 -4 -17 -10 0 -5 7 -7 15 -4 10 4
18 -3 25 -21 16 -41 12 -50 -11 -24 -19 22 -21 22 -18 4 2 -11 0 -26 -4 -32
-6 -9 -3 -11 7 -7 28 11 37 -5 21 -37 -11 -19 -26 -32 -46 -36 -16 -3 -32 -10
-35 -14 -3 -5 -11 -6 -17 -2 -7 5 -47 8 -89 8 -71 0 -77 -2 -72 -18 4 -14 1
-18 -13 -16 -10 2 -38 -2 -63 -8 -61 -16 -104 -25 -109 -23 -2 1 -7 -2 -10 -7
-8 -11 -95 -53 -110 -53 -6 0 -11 -4 -11 -10 0 -5 -7 -10 -16 -10 -8 0 -21 -6
-29 -12 -7 -7 -36 -26 -64 -43 -31 -18 -54 -39 -57 -53 -9 -35 1 -114 19 -151
15 -31 15 -34 -19 -106 -19 -41 -48 -114 -64 -162 -15 -49 -40 -113 -54 -144
-37 -79 -52 -199 -37 -290 6 -39 14 -171 18 -293 7 -251 -2 -332 -46 -438 -16
-37 -26 -68 -23 -68 4 0 42 12 85 26 42 15 80 24 83 21 16 -16 -11 -36 -88
-67 -244 -96 -446 -253 -583 -455 -63 -91 -132 -235 -141 -291 -3 -24 -8 -44
-10 -44 -2 0 -30 17 -63 38 -71 47 -136 66 -194 60 -59 -7 -102 -29 -178 -92
-63 -52 -66 -53 -140 -58 -104 -7 -202 -54 -304 -148 -41 -39 -78 -70 -83 -70
-10 0 -95 -80 -114 -108 -12 -17 -34 -27 -83 -37 -80 -17 -139 -49 -188 -104
-37 -41 -87 -130 -87 -153 0 -7 11 9 24 36 41 83 114 146 170 146 37 0 39 -13
9 -71 -24 -45 -28 -67 -31 -153 -5 -126 10 -191 84 -378 30 -77 54 -141 52
-142 -2 -1 -14 -9 -28 -18 -14 -8 -34 -32 -45 -52 -17 -32 -23 -36 -52 -33
-19 2 -40 12 -49 23 -28 34 -2 -9 39 -64 21 -29 64 -80 95 -112 62 -66 68 -80
43 -107 -9 -10 -18 -22 -18 -26 -1 -4 -10 -27 -21 -50 -40 -84 -62 -136 -62
-146 0 -6 -8 -20 -17 -30 -34 -37 -44 -51 -37 -51 4 0 -2 -10 -14 -23 -12 -13
-19 -27 -15 -30 3 -4 1 -7 -5 -7 -7 0 -18 -15 -27 -32 -20 -45 -38 -71 -53
-81 -13 -8 -72 -128 -72 -147 0 -5 -6 -10 -13 -10 -7 0 -21 -22 -32 -50 -11
-27 -23 -50 -27 -50 -4 0 -8 -5 -8 -11 0 -7 -9 -19 -19 -28 -10 -9 -24 -35
-30 -58 -6 -23 -18 -49 -26 -57 -8 -8 -15 -24 -15 -35 0 -12 -3 -21 -8 -21 -4
0 -16 -16 -26 -35 -11 -19 -40 -56 -66 -83 -43 -44 -54 -61 -59 -87 -2 -5 -9
-17 -17 -26 -8 -9 -11 -19 -7 -22 3 -4 1 -7 -5 -7 -6 0 -14 -9 -17 -20 -4 -11
-10 -18 -14 -16 -4 3 -13 -10 -20 -27 -27 -67 -49 -108 -57 -106 -5 1 -14 -7
-19 -17 -6 -11 -17 -20 -25 -22 -17 -4 -38 -29 -51 -63 -19 -50 -148 -98 -149
-56 0 7 -11 20 -25 29 -23 18 -23 18 -20 -10 4 -29 41 -130 54 -147 5 -5 21
-32 36 -59 41 -75 129 -189 189 -243 65 -60 169 -115 256 -137 89 -23 399 -46
615 -46 285 0 512 26 887 101 224 44 291 48 347 20 48 -25 150 -127 198 -200
75 -112 158 -305 179 -416 l6 -35 1824 0 1824 0 4 23 c3 12 15 74 26 137 25
136 110 470 119 470 4 0 20 -53 35 -117 31 -127 109 -376 146 -460 l22 -53
588 0 587 0 -19 98 c-10 53 -34 181 -53 284 -117 625 -257 1099 -434 1464
-231 476 -461 625 -1116 724 -33 5 -136 20 -230 35 -366 55 -446 78 -608 178
-29 18 -61 37 -72 43 -10 6 -22 22 -26 35 -3 14 -25 53 -49 87 -60 89 -80 149
-87 264 -3 54 -11 106 -18 115 -7 9 -31 19 -53 22 l-42 6 34 77 c18 42 58 114
89 160 30 46 73 116 95 156 45 84 158 228 248 317 51 50 199 259 243 342 6 13
24 25 39 29 199 44 385 215 444 409 32 103 31 256 -2 345 -31 83 -101 156
-188 196 l-62 28 8 40 c12 71 7 248 -11 326 -9 41 -21 110 -27 153 l-11 77 29
38 c70 89 184 379 282 722 32 109 38 121 119 230 47 63 130 158 185 210 243
233 316 310 364 381 105 157 184 328 320 694 107 289 142 431 142 585 0 224
-70 346 -328 568 -164 142 -207 189 -282 313 -142 236 -238 329 -424 414 -78
35 -168 65 -446 150 -227 69 -288 92 -560 212 -365 162 -523 199 -730 176z
m-239 -162 c6 10 11 11 19 3 7 -7 30 -8 66 -3 48 7 85 1 113 -17 1 -2 -6 -12
-17 -24 -11 -12 -19 -27 -16 -34 2 -6 -11 -18 -29 -26 -33 -16 -54 -59 -22
-47 9 4 14 3 10 -3 -3 -6 -12 -10 -19 -10 -12 0 -27 -38 -31 -80 -3 -32 15
-50 53 -52 l37 -1 -37 -4 c-30 -3 -38 -8 -38 -25 0 -16 5 -19 24 -16 14 3 31
1 38 -3 10 -7 9 -9 -4 -9 -9 0 -18 -6 -21 -12 -3 -10 -7 -10 -20 1 -12 9 -17
10 -17 2 0 -7 -4 -9 -10 -6 -6 4 -7 -1 -3 -11 5 -13 3 -15 -7 -9 -9 6 -11 4
-6 -4 5 -7 14 -10 22 -7 8 3 14 1 14 -4 0 -6 -5 -10 -11 -10 -6 0 -8 -7 -5
-16 3 -8 2 -12 -4 -9 -6 3 -10 1 -10 -5 0 -7 -7 -9 -16 -6 -8 3 -13 2 -9 -3 3
-5 -1 -12 -7 -14 -7 -3 -1 -6 15 -6 15 -1 27 4 27 9 0 6 8 10 18 10 14 0 15
-2 2 -10 -13 -9 -13 -10 0 -11 8 0 4 -5 -10 -9 -19 -6 -20 -8 -6 -9 13 -1 16
-6 11 -18 -4 -10 -8 -23 -8 -30 0 -7 -3 -10 -7 -8 -3 2 -12 0 -20 -5 -13 -8
-12 -14 3 -40 15 -25 16 -30 3 -30 -8 0 -17 6 -19 13 -3 6 -6 3 -6 -8 -1 -11
6 -33 14 -48 13 -25 13 -27 -3 -25 -12 2 -16 -3 -14 -19 2 -16 -2 -23 -14 -23
-16 0 -16 -1 0 -19 15 -16 15 -19 1 -24 -20 -8 -19 -44 3 -56 15 -9 15 -10 -5
-11 -12 0 -24 -4 -27 -9 -4 -5 3 -7 15 -4 20 6 21 3 14 -38 -7 -44 -18 -59
-42 -59 -7 0 -13 -4 -13 -10 0 -9 13 -14 31 -12 3 1 4 -10 1 -23 -2 -14 -7
-25 -11 -25 -3 0 -7 -18 -7 -39 -2 -62 -54 -220 -70 -214 -8 3 -14 0 -14 -6 0
-6 5 -11 10 -11 6 0 10 -5 10 -12 0 -6 -3 -8 -7 -5 -12 12 -34 -33 -28 -56 5
-17 4 -19 -4 -7 -9 13 -11 12 -11 -4 0 -14 -3 -16 -13 -8 -14 12 -18 -1 -20
-74 -1 -35 -3 -39 -15 -28 -18 18 -26 18 -18 -2 5 -12 1 -14 -15 -9 -16 5 -19
4 -14 -6 6 -9 3 -11 -9 -6 -10 4 -22 7 -27 7 -5 0 -9 7 -9 15 0 23 -16 18 -39
-11 -12 -15 -21 -21 -21 -14 0 7 -8 10 -20 7 -11 -3 -23 -1 -26 4 -3 6 -14 7
-25 4 -21 -7 -27 10 -6 18 6 2 9 7 5 11 -3 4 -15 3 -26 -3 -12 -6 -34 -11 -51
-11 -24 0 -32 -5 -37 -25 -5 -21 -12 -25 -45 -25 -28 0 -39 4 -39 15 0 8 6 15
13 15 7 1 6 5 -5 13 -26 20 -44 177 -24 210 9 15 7 21 -8 33 -19 13 -19 14 -2
14 15 0 16 3 6 15 -10 12 -16 13 -26 4 -14 -12 -20 2 -6 15 4 4 7 11 7 14 1
18 37 72 47 72 6 0 3 9 -7 20 -10 11 -21 18 -24 15 -3 -4 1 -10 9 -15 8 -5 11
-12 8 -16 -4 -3 -14 1 -23 9 -9 9 -11 18 -6 22 6 3 8 12 4 20 -3 8 0 15 7 15
6 0 8 -5 4 -11 -5 -8 1 -10 20 -7 20 4 24 2 16 -7 -5 -6 -7 -15 -4 -18 10 -10
30 16 36 46 4 22 3 25 -8 16 -7 -6 -18 -8 -24 -4 -15 9 -12 25 4 19 10 -4 12
2 9 20 -4 20 -1 26 13 27 11 0 14 3 7 6 -15 6 -17 49 -3 58 16 10 12 23 -6 21
-9 0 -19 5 -22 13 -3 8 0 11 7 7 6 -4 11 -2 11 3 0 6 7 11 16 11 14 0 14 3 4
15 -7 8 -19 15 -26 15 -8 0 -14 9 -14 19 0 15 5 19 24 15 14 -2 28 1 32 7 4 8
3 9 -4 5 -7 -4 -12 -2 -12 4 0 6 -4 8 -10 5 -5 -3 -10 -2 -10 4 0 5 5 13 10
16 6 3 10 11 10 18 0 8 -3 8 -12 -1 -7 -7 -19 -12 -27 -12 -12 0 -12 3 -3 12
15 15 15 28 1 28 -5 0 -7 -4 -4 -10 3 -5 1 -10 -4 -10 -11 0 -15 31 -11 78 1
12 -3 22 -8 22 -6 0 -6 10 1 24 10 20 13 22 20 10 5 -8 6 -21 3 -29 -3 -9 0
-12 9 -8 10 3 12 10 5 22 -9 17 -3 24 39 50 20 13 5 52 -17 44 -16 -6 -16 -6
0 10 9 9 21 17 26 17 5 0 9 7 9 15 0 8 -6 15 -14 15 -7 0 -13 9 -13 20 0 11
-4 20 -9 20 -4 0 -6 -11 -3 -25 2 -14 0 -25 -6 -25 -5 0 -13 16 -16 35 -4 20
-11 33 -17 30 -8 -5 -14 16 -10 38 1 4 -10 5 -24 1 -15 -4 -25 -2 -25 5 0 6 6
11 14 11 8 0 20 16 26 35 8 25 18 35 32 35 15 0 19 5 15 20 -3 11 -1 23 4 26
5 3 9 -1 9 -8 0 -34 27 33 28 69 1 59 37 93 101 94 91 2 165 8 180 15 18 8 29
11 81 20 19 3 44 9 55 14 31 14 68 17 89 7 13 -6 21 -5 27 4z m-1085 -170 c-4
-5 0 -12 6 -14 8 -3 6 -6 -4 -6 -18 -1 -24 10 -11 22 9 10 15 8 9 -2z m451
-126 c0 -8 -4 -12 -9 -9 -5 3 -6 10 -3 15 9 13 12 11 12 -6z m10 -71 c-3 -3
-12 -4 -19 -1 -8 3 -5 6 6 6 11 1 17 -2 13 -5z m20 -40 c-3 -3 -12 -4 -19 -1
-8 3 -5 6 6 6 11 1 17 -2 13 -5z m728 -124 c-3 -5 -12 -10 -18 -10 -7 0 -6 4
3 10 19 12 23 12 15 0z m-1422 -205 c-3 -9 -8 -14 -10 -11 -3 3 -2 9 2 15 9
16 15 13 8 -4z m27 -29 c0 -2 -9 -6 -20 -9 -11 -3 -20 -1 -20 4 0 5 9 9 20 9
11 0 20 -2 20 -4z m630 -166 c-6 -11 -12 -20 -14 -20 -2 0 -2 9 1 20 3 11 9
20 15 20 5 0 4 -9 -2 -20z m60 -14 c0 -3 -4 -8 -10 -11 -5 -3 -10 -1 -10 4 0
6 5 11 10 11 6 0 10 -2 10 -4z m-47 -321 c-3 -9 -8 -14 -10 -11 -3 3 -2 9 2
15 9 16 15 13 8 -4z m-816 -1321 c3 -8 16 -19 28 -24 23 -9 23 -9 6 -61 -16
-46 -58 -99 -80 -99 -21 0 -23 52 -6 145 2 11 4 28 4 38 1 22 39 23 48 1z
m833 -118 c0 -3 -4 -8 -10 -11 -5 -3 -10 -1 -10 4 0 6 5 11 10 11 6 0 10 -2
10 -4z m-41 -193 c0 -25 -1 -25 -8 -8 -5 11 -7 23 -4 28 8 14 13 7 12 -20z
m-83 -218 c-5 -13 -8 -14 -20 -3 -10 9 -11 17 -3 26 13 17 32 -1 23 -23z m-71
-65 c-3 -5 -12 -10 -18 -10 -7 0 -6 4 3 10 19 12 23 12 15 0z m-380 -1716 c0
-21 4 -44 8 -51 4 -7 -1 -14 -14 -18 -11 -4 -36 -22 -56 -41 -19 -19 -39 -34
-44 -34 -5 0 -9 -7 -9 -17 0 -9 -3 -13 -7 -10 -3 4 -11 -3 -17 -15 -23 -46
-66 -31 -66 22 0 78 49 153 123 188 62 30 82 24 82 -24z m1025 -165 c0 -5 -4
-9 -10 -9 -5 0 -10 7 -10 16 0 8 5 12 10 9 6 -3 10 -10 10 -16z m-1000 -19 c0
-5 -4 -10 -10 -10 -5 0 -10 5 -10 10 0 6 5 10 10 10 6 0 10 -4 10 -10z m-609
-681 c11 -6 32 -37 46 -70 14 -33 29 -57 32 -52 3 4 21 8 39 9 31 1 32 0 32
-37 0 -20 3 -44 6 -53 4 -11 -5 -18 -34 -25 -44 -12 -56 -24 -66 -63 -6 -26
-5 -27 19 -18 14 5 38 16 55 25 16 8 33 15 38 15 10 0 36 -89 29 -97 -3 -2
-65 3 -138 11 -391 45 -380 43 -358 59 8 7 31 41 50 77 37 72 184 230 213 230
10 0 26 -5 37 -11z m-641 -833 c0 -28 3 -62 7 -76 3 -15 -10 -2 -35 35 l-41
60 21 22 c31 33 48 19 48 -41z m310 -56 c6 -11 8 -20 6 -20 -3 0 -10 9 -16 20
-6 11 -8 20 -6 20 3 0 10 -9 16 -20z m-241 -164 c8 -9 8 -16 2 -20 -6 -4 -15
3 -21 14 -12 23 2 27 19 6z m1260 -286 c118 -89 237 -138 378 -156 l51 -6 -34
-77 c-19 -42 -63 -121 -98 -176 -78 -123 -96 -158 -96 -184 0 -11 -9 -22 -21
-26 -11 -4 -50 -27 -87 -53 -155 -106 -247 -131 -817 -222 -413 -66 -591 -113
-769 -202 -43 -22 -79 -38 -81 -36 -2 2 42 71 96 153 55 83 125 200 156 260
l55 110 -7 90 c-7 91 -18 122 -58 158 -20 17 -20 18 -1 32 10 7 28 16 39 19
58 15 276 128 308 159 56 57 90 139 95 229 2 43 -1 91 -6 108 -6 16 -10 30 -9
30 1 0 25 -9 53 -20 99 -37 202 -45 369 -27 83 9 175 24 205 35 l54 19 79 -84
c44 -46 109 -106 146 -133z m-2087 -115 c-4 -35 -22 -60 -22 -31 0 16 17 66
23 66 2 0 1 -16 -1 -35z m34 -107 c8 -16 13 -28 10 -28 -6 0 -46 66 -46 76 0
10 14 -8 36 -48z m231 0 c-3 -8 -6 -5 -6 6 -1 11 2 17 5 13 3 -3 4 -12 1 -19z
m-92 -88 c-18 -20 -46 -26 -59 -13 -3 4 8 12 26 19 48 17 53 16 33 -6z"/>
<path d="M4863 10256 c4 -10 7 -22 7 -27 0 -5 4 -9 9 -9 14 0 7 43 -8 48 -10
3 -12 0 -8 -12z"/>
<path d="M4834 10043 c4 -25 23 -27 29 -3 4 15 0 20 -13 20 -11 0 -17 -6 -16
-17z"/>
<path d="M4838 10003 c7 -3 16 -2 19 1 4 3 -2 6 -13 5 -11 0 -14 -3 -6 -6z"/>
<path d="M4775 9980 c3 -5 8 -10 11 -10 2 0 4 5 4 10 0 6 -5 10 -11 10 -5 0
-7 -4 -4 -10z"/>
<path d="M4806 9982 c-2 -4 -1 -14 5 -22 7 -12 9 -10 9 8 0 23 -5 28 -14 14z"/>
<path d="M4836 9967 c3 -10 9 -15 12 -12 3 3 0 11 -7 18 -10 9 -11 8 -5 -6z"/>
<path d="M4270 9800 c0 -5 5 -10 11 -10 5 0 7 5 4 10 -3 6 -8 10 -11 10 -2 0
-4 -4 -4 -10z"/>
<path d="M4304 9115 c-3 -8 -4 -20 -2 -27 3 -7 7 -1 10 15 6 29 1 36 -8 12z"/>
<path d="M3497 9591 c-3 -12 -1 -21 3 -21 14 0 19 15 11 29 -6 9 -10 7 -14 -8z"/>
<path d="M3246 9042 c-7 -11 4 -52 14 -52 9 0 6 47 -3 56 -3 3 -7 1 -11 -4z"/>
<path d="M4120 7790 c0 -5 5 -10 10 -10 6 0 10 5 10 10 0 6 -4 10 -10 10 -5 0
-10 -4 -10 -10z"/>
<path d="M4060 7710 c-13 -8 -12 -10 3 -10 9 0 17 5 17 10 0 12 -1 12 -20 0z"/>
<path d="M3940 7580 c0 -5 5 -10 10 -10 6 0 10 5 10 10 0 6 -4 10 -10 10 -5 0
-10 -4 -10 -10z"/>
<path d="M4023 7583 c-18 -7 -16 -23 2 -23 8 0 15 7 15 15 0 8 -1 15 -2 14 -2
0 -9 -3 -15 -6z"/>
<path d="M4050 7560 c0 -5 7 -7 15 -4 8 4 15 8 15 10 0 2 -7 4 -15 4 -8 0 -15
-4 -15 -10z"/>
<path d="M3898 7553 c7 -3 16 -2 19 1 4 3 -2 6 -13 5 -11 0 -14 -3 -6 -6z"/>
<path d="M4095 7540 c-3 -5 -2 -10 4 -10 5 0 13 5 16 10 3 6 2 10 -4 10 -5 0
-13 -4 -16 -10z"/>
<path d="M3721 7274 c0 -11 3 -14 6 -6 3 7 2 16 -1 19 -3 4 -6 -2 -5 -13z"/>
<path d="M3609 7262 c0 -4 -3 -24 -5 -46 -6 -44 15 -81 27 -49 7 16 8 15 8 -4
1 -19 7 -23 31 -23 22 0 28 4 24 15 -4 8 -2 15 4 15 6 0 8 10 4 22 -4 16 -2
19 9 12 11 -6 10 -2 -2 16 -9 14 -26 26 -38 28 -11 2 -21 7 -21 11 0 9 -40 12
-41 3z"/>
<path d="M3805 7250 c-3 -5 -1 -10 4 -10 6 0 11 5 11 10 0 6 -2 10 -4 10 -3 0
-8 -4 -11 -10z"/>
<path d="M3846 7251 c-4 -5 -2 -12 3 -15 5 -4 12 -2 15 3 4 5 2 12 -3 15 -5 4
-12 2 -15 -3z"/>
<path d="M4095 7160 c-3 -5 -1 -10 5 -10 6 0 8 -5 4 -12 -4 -7 -3 -8 4 -4 14
9 16 36 3 36 -6 0 -13 -4 -16 -10z"/>
<path d="M4135 7039 c-4 -6 -5 -12 -2 -15 2 -3 7 2 10 11 7 17 1 20 -8 4z"/>
<path d="M1121 3564 c0 -11 3 -14 6 -6 3 7 2 16 -1 19 -3 4 -6 -2 -5 -13z"/>
</g>
</svg>
